<svg xmlns="http://www.w3.org/2000/svg" viewBox="0 0 600 74.19"><defs><style>.cls-1{fill:#ac9c63;}</style></defs><g id="Calque_2" data-name="Calque 2"><g id="Calque_1-2" data-name="Calque 1"><circle class="cls-1" cx="150.71" cy="30.66" r="5.9"/><path class="cls-1" d="M115.59,59.35H101.16L79.52,21.15v38.2H68.2V2H82.63l21.64,39.1V2h11.32Z"/><path class="cls-1" d="M137.76,30.08V49h26.56V59.35h-39V2h38.28V12.3H137.76Z"/><path class="cls-1" d="M206.25,51.07H231.9v8.28H197V2h9.27Z"/><path class="cls-1" d="M244.44,0a5.58,5.58,0,0,1,4,1.68,5.37,5.37,0,0,1,1.72,4,5.31,5.31,0,0,1-1.72,4,5.62,5.62,0,0,1-4,1.64,5.69,5.69,0,0,1-4.09-1.64,5.32,5.32,0,0,1-1.73-4,5.38,5.38,0,0,1,1.73-4A5.64,5.64,0,0,1,244.44,0ZM249,59.35h-9v-43h9Z"/><path class="cls-1" d="M298.06,21.23c-1.43,0-2.6,0-3.53.12a8.6,8.6,0,0,0-2.79.78,12.84,12.84,0,0,1,2.3,7.54,12.57,12.57,0,0,1-1.23,5.62,12.13,12.13,0,0,1-3.57,4.3,17,17,0,0,1-5.61,2.79,25.83,25.83,0,0,1-7.46,1A24.82,24.82,0,0,1,267.81,42a6.35,6.35,0,0,0-.95,1.43,3.47,3.47,0,0,0-.36,1.44,3.34,3.34,0,0,0,1.23,2.83,7.2,7.2,0,0,0,4.26.94h8.28a27.76,27.76,0,0,1,7.91,1,14.38,14.38,0,0,1,5.24,2.71,10.64,10.64,0,0,1,3,4,12.52,12.52,0,0,1,.94,4.8q0,5.9-5.33,9.51t-15.25,3.61a41.05,41.05,0,0,1-9.3-.91,19.39,19.39,0,0,1-6.19-2.46,9.45,9.45,0,0,1-3.44-3.68,10,10,0,0,1-1.07-4.51,8,8,0,0,1,1.56-5,13.83,13.83,0,0,1,4.51-3.73,8.19,8.19,0,0,1-4-7.22,7.56,7.56,0,0,1,1-3.73,10.7,10.7,0,0,1,3.4-3.48,12.88,12.88,0,0,1-3.77-4.22,11.35,11.35,0,0,1-1.4-5.62,13.66,13.66,0,0,1,1.11-5.45,12.75,12.75,0,0,1,3.32-4.55,16,16,0,0,1,5.57-3.11,24.26,24.26,0,0,1,7.87-1.15,26,26,0,0,1,6.15.66,20.18,20.18,0,0,1,4.84,1.8q3.6-4.5,11.15-4.51ZM268.55,55.91a8.16,8.16,0,0,0-3,2.66,5.84,5.84,0,0,0-.69,2.83,5,5,0,0,0,2.62,4.42c1.75,1.1,4.81,1.64,9.18,1.64q6,0,8.85-1.68a5,5,0,0,0,2.87-4.38,4.47,4.47,0,0,0-2.25-4.18c-1.51-.88-4.3-1.31-8.4-1.31Zm7.54-33.86q-4.51,0-6.85,2a6.8,6.8,0,0,0-2.33,5.45,6.83,6.83,0,0,0,2.21,5.25c1.47,1.36,3.74,2.05,6.8,2.05s5.3-.65,6.89-1.93a6.53,6.53,0,0,0,2.38-5.37A7,7,0,0,0,283,24.06C281.5,22.72,279.2,22.05,276.09,22.05Z"/><path class="cls-1" d="M314.86,21.72a15.28,15.28,0,0,1,5.66-4.79,15.85,15.85,0,0,1,6.88-1.52q7.22,0,11,4.39t3.77,12.09V59.35h-9V34.1a27,27,0,0,0-.33-4.38,9.62,9.62,0,0,0-1.23-3.49,6.27,6.27,0,0,0-2.42-2.29,8.28,8.28,0,0,0-4-.82,9.39,9.39,0,0,0-4.1.9,10,10,0,0,0-3.28,2.5,11.46,11.46,0,0,0-2.17,3.81,14.49,14.49,0,0,0-.78,4.84V59.35h-9V2h9Z"/><path class="cls-1" d="M363.14,16.39h10.91V23.2H363.14V47.46a6.11,6.11,0,0,0,1.15,4.06c.77.9,2.13,1.35,4.1,1.35a19.16,19.16,0,0,0,3.61-.33,27.09,27.09,0,0,0,3-.73V59c-1.15.33-2.43.63-3.85.9a24.27,24.27,0,0,1-4.68.41,17.94,17.94,0,0,1-5.82-.82,9.15,9.15,0,0,1-3.81-2.37,9.62,9.62,0,0,1-2.09-3.69,16.07,16.07,0,0,1-.65-4.76V23.2h-5.91V16.39h5.91V5.25h9Z"/><path class="cls-1" d="M400,15.41a26,26,0,0,1,10.16,1.8,23.53,23.53,0,0,1,7.3,4.76l-5.25,5.41a18,18,0,0,0-5.45-3.49,17.46,17.46,0,0,0-6.68-1.27,11.21,11.21,0,0,0-6.19,1.4,4.26,4.26,0,0,0-2.09,3.69,4.44,4.44,0,0,0,.49,2.17A4.21,4.21,0,0,0,394,31.4a15.58,15.58,0,0,0,3.28,1.18q2.06.54,5.25,1,7.79,1.23,11.8,4.18t4,9.18a11.66,11.66,0,0,1-1.23,5.37,12.5,12.5,0,0,1-3.56,4.22,17.13,17.13,0,0,1-5.82,2.79,29.8,29.8,0,0,1-8,1,30.45,30.45,0,0,1-11.51-2,22.2,22.2,0,0,1-8.16-5.45l5.57-5.65a19.05,19.05,0,0,0,6.11,4.22A18.79,18.79,0,0,0,399.37,53q5.08,0,7.42-1.51a4.63,4.63,0,0,0,2.34-4.06,5.45,5.45,0,0,0-.41-2.17,4.09,4.09,0,0,0-1.64-1.72,14,14,0,0,0-3.53-1.44,53.75,53.75,0,0,0-6.06-1.23q-7.64-1.23-11.15-4.34a10.52,10.52,0,0,1-3.53-8.28,11.37,11.37,0,0,1,1.27-5.41,11.9,11.9,0,0,1,3.53-4,16.67,16.67,0,0,1,5.41-2.5A26.76,26.76,0,0,1,400,15.41Z"/><path class="cls-1" d="M445.74,15.41a17.78,17.78,0,0,1,7.71,1.64,17.24,17.24,0,0,1,5.9,4.59,21.32,21.32,0,0,1,3.81,7.05,28.69,28.69,0,0,1,1.35,9,29.79,29.79,0,0,1-1.27,8.81,21.55,21.55,0,0,1-3.73,7.21,17.81,17.81,0,0,1-5.94,4.84,17.34,17.34,0,0,1-7.91,1.76,17,17,0,0,1-7.25-1.47,13.09,13.09,0,0,1-5.13-4.18v18h-8.93V16.39h8.85v4.76a14.48,14.48,0,0,1,5.9-4.47A18.2,18.2,0,0,1,445.74,15.41ZM444,23a9.88,9.88,0,0,0-8,3.69q-3,3.69-3,11.15a23.2,23.2,0,0,0,.86,6.68,14,14,0,0,0,2.34,4.67,9.27,9.27,0,0,0,3.48,2.75,10.44,10.44,0,0,0,4.31.9A9.94,9.94,0,0,0,452,48.9q3.17-3.9,3.16-11.27,0-6.64-2.87-10.66A9.54,9.54,0,0,0,444,23Z"/><path class="cls-1" d="M490.35,15.41a19.42,19.42,0,0,1,8.4,1.72,17.61,17.61,0,0,1,6.15,4.76,20.46,20.46,0,0,1,3.77,7.17,30.36,30.36,0,0,1,1.27,9v1.88H479.29c.1,4.32,1.2,7.56,3.27,9.71s5,3.24,8.69,3.24a11.6,11.6,0,0,0,10.91-6.31l7.46,3.85a20,20,0,0,1-7.55,7.34,22.7,22.7,0,0,1-11.14,2.58,21.78,21.78,0,0,1-8.9-1.72,18.75,18.75,0,0,1-6.56-4.75,20.81,20.81,0,0,1-4.05-7.14,27.27,27.27,0,0,1-1.4-8.85,29.65,29.65,0,0,1,1.31-9,20.26,20.26,0,0,1,3.9-7.09,17.93,17.93,0,0,1,6.35-4.67A21.37,21.37,0,0,1,490.35,15.41Zm-.08,7.21a10.31,10.31,0,0,0-7.58,2.79c-1.89,1.86-3,4.51-3.32,8H500.6c-.28-3.6-1.3-6.3-3.08-8.07A9.77,9.77,0,0,0,490.27,22.62Z"/><path class="cls-1" d="M535.75,15.41a19.45,19.45,0,0,1,8.4,1.72,17.7,17.7,0,0,1,6.15,4.76,20.8,20.8,0,0,1,3.77,7.17,30.69,30.69,0,0,1,1.27,9v1.88H524.68q.17,6.48,3.28,9.71t8.69,3.24a11.59,11.59,0,0,0,10.9-6.31L555,50.41a20,20,0,0,1-7.54,7.34,22.74,22.74,0,0,1-11.15,2.58,21.73,21.73,0,0,1-8.89-1.72,18.57,18.57,0,0,1-6.56-4.75,20.83,20.83,0,0,1-4.06-7.14,27.27,27.27,0,0,1-1.39-8.85,29.34,29.34,0,0,1,1.31-9,20.08,20.08,0,0,1,3.89-7.09A17.93,17.93,0,0,1,527,17.09,21.42,21.42,0,0,1,535.75,15.41Zm-.09,7.21a10.33,10.33,0,0,0-7.58,2.79,12.45,12.45,0,0,0-3.32,8H546c-.27-3.6-1.3-6.3-3.07-8.07A9.81,9.81,0,0,0,535.66,22.62Z"/><path class="cls-1" d="M600,59.35h-8.94V54.43a13.21,13.21,0,0,1-6,4.63,18.85,18.85,0,0,1-6.56,1.27,18.26,18.26,0,0,1-7.83-1.64,17.1,17.1,0,0,1-5.94-4.59A20.63,20.63,0,0,1,561,47,30,30,0,0,1,559.67,38,29,29,0,0,1,561,28.9a21.48,21.48,0,0,1,3.85-7.14,17.61,17.61,0,0,1,13.82-6.35,16.43,16.43,0,0,1,7.17,1.44,14.66,14.66,0,0,1,5.12,4V2h9ZM580.41,23a9.9,9.9,0,0,0-8.36,3.86q-3,3.84-2.95,11T572,48.9q2.88,3.89,8.45,3.89a9.83,9.83,0,0,0,7.91-3.69q3.07-3.69,3.07-11.31a21.83,21.83,0,0,0-.86-6.48,14,14,0,0,0-2.33-4.63,9.81,9.81,0,0,0-3.49-2.79A10.11,10.11,0,0,0,580.41,23Z"/><path class="cls-1" d="M30.58.08A30.58,30.58,0,1,0,61.16,30.66,30.58,30.58,0,0,0,30.58.08Zm0,49.37a18.8,18.8,0,1,1,18.8-18.79A18.8,18.8,0,0,1,30.58,49.45Z"/><path class="cls-1" d="M30.58,24.76a5.9,5.9,0,1,0,5.9,5.9A5.9,5.9,0,0,0,30.58,24.76Z"/></g></g></svg>